<mxfile host="65bd71144e">
    <diagram name="02" id="YMj1xpAl_SfOTKT0soET">
        <mxGraphModel dx="1178" dy="971" grid="1" gridSize="10" guides="1" tooltips="1" connect="1" arrows="1" fold="1" page="1" pageScale="1" pageWidth="1169" pageHeight="827" math="0" shadow="0">
            <root>
                <mxCell id="ML3krrQk0YiTmpszw3Px-0"/>
                <mxCell id="ML3krrQk0YiTmpszw3Px-1" parent="ML3krrQk0YiTmpszw3Px-0"/>
                <mxCell id="ML3krrQk0YiTmpszw3Px-4" value="地図&lt;div&gt;～関連～&lt;/div&gt;" style="text;html=1;align=center;verticalAlign=middle;whiteSpace=wrap;rounded=0;fillColor=#dae8fc;strokeColor=#6c8ebf;" parent="ML3krrQk0YiTmpszw3Px-1" vertex="1">
                    <mxGeometry x="81.25999999999999" y="110" width="200" height="40" as="geometry"/>
                </mxCell>
                <mxCell id="26" value="" style="endArrow=classic;startArrow=classic;html=1;" edge="1" parent="ML3krrQk0YiTmpszw3Px-1">
                    <mxGeometry width="50" height="50" relative="1" as="geometry">
                        <mxPoint x="200" y="440" as="sourcePoint"/>
                        <mxPoint x="200" y="200" as="targetPoint"/>
                    </mxGeometry>
                </mxCell>
                <mxCell id="27" value="" style="endArrow=classic;startArrow=classic;html=1;" edge="1" parent="ML3krrQk0YiTmpszw3Px-1">
                    <mxGeometry width="50" height="50" relative="1" as="geometry">
                        <mxPoint x="80" y="320" as="sourcePoint"/>
                        <mxPoint x="320" y="320" as="targetPoint"/>
                    </mxGeometry>
                </mxCell>
                <mxCell id="28" value="軸・縦" style="text;html=1;align=center;verticalAlign=middle;whiteSpace=wrap;rounded=0;" vertex="1" parent="ML3krrQk0YiTmpszw3Px-1">
                    <mxGeometry x="150" y="170" width="110" height="30" as="geometry"/>
                </mxCell>
                <mxCell id="29" value="軸・横" style="text;html=1;align=center;verticalAlign=middle;whiteSpace=wrap;rounded=0;" vertex="1" parent="ML3krrQk0YiTmpszw3Px-1">
                    <mxGeometry x="320" y="300" width="110" height="30" as="geometry"/>
                </mxCell>
                <mxCell id="30" value="軸・縦" style="rounded=1;whiteSpace=wrap;html=1;" vertex="1" parent="ML3krrQk0YiTmpszw3Px-1">
                    <mxGeometry x="440" y="190" width="120" height="120" as="geometry"/>
                </mxCell>
                <mxCell id="31" value="軸・横" style="rounded=1;whiteSpace=wrap;html=1;" vertex="1" parent="ML3krrQk0YiTmpszw3Px-1">
                    <mxGeometry x="440" y="330" width="120" height="120" as="geometry"/>
                </mxCell>
                <mxCell id="32" value="・良いと悪い（右上が最も良い）&lt;div&gt;・プラスとマイナス（正負）&lt;/div&gt;&lt;div&gt;・多いと少ない&lt;/div&gt;&lt;div&gt;・広いと狭い（上が広い）&lt;/div&gt;" style="rounded=1;whiteSpace=wrap;html=1;" vertex="1" parent="ML3krrQk0YiTmpszw3Px-1">
                    <mxGeometry x="580" y="190" width="240" height="120" as="geometry"/>
                </mxCell>
                <mxCell id="33" value="" style="rounded=0;whiteSpace=wrap;html=1;" vertex="1" parent="ML3krrQk0YiTmpszw3Px-1">
                    <mxGeometry x="81.26" y="480" width="318.74" height="200" as="geometry"/>
                </mxCell>
                <mxCell id="35" value="領域A" style="ellipse;whiteSpace=wrap;html=1;opacity=50;" vertex="1" parent="ML3krrQk0YiTmpszw3Px-1">
                    <mxGeometry x="130.63" y="565" width="120" height="80" as="geometry"/>
                </mxCell>
                <mxCell id="36" value="領域B" style="ellipse;whiteSpace=wrap;html=1;opacity=50;" vertex="1" parent="ML3krrQk0YiTmpszw3Px-1">
                    <mxGeometry x="176.26" y="515" width="120" height="80" as="geometry"/>
                </mxCell>
                <mxCell id="37" value="領域C" style="ellipse;whiteSpace=wrap;html=1;opacity=50;" vertex="1" parent="ML3krrQk0YiTmpszw3Px-1">
                    <mxGeometry x="220.63" y="565" width="120" height="80" as="geometry"/>
                </mxCell>
                <mxCell id="38" value="マップ" style="text;html=1;align=center;verticalAlign=middle;whiteSpace=wrap;rounded=0;fillColor=#d5e8d4;strokeColor=#82b366;" vertex="1" parent="ML3krrQk0YiTmpszw3Px-1">
                    <mxGeometry x="90" y="490" width="60" height="30" as="geometry"/>
                </mxCell>
                <mxCell id="39" value="2軸図" style="text;html=1;align=center;verticalAlign=middle;whiteSpace=wrap;rounded=0;fillColor=#d5e8d4;strokeColor=#82b366;" vertex="1" parent="ML3krrQk0YiTmpszw3Px-1">
                    <mxGeometry x="81.26" y="170" width="60" height="30" as="geometry"/>
                </mxCell>
                <mxCell id="40" value="・時間&lt;div&gt;・状態&lt;/div&gt;&lt;div&gt;・違い&lt;/div&gt;&lt;div&gt;・左と右&lt;/div&gt;" style="rounded=1;whiteSpace=wrap;html=1;" vertex="1" parent="ML3krrQk0YiTmpszw3Px-1">
                    <mxGeometry x="580" y="330" width="240" height="120" as="geometry"/>
                </mxCell>
            </root>
        </mxGraphModel>
    </diagram>
</mxfile>